PathFileType	4	(X/Y/Z)	./resultDataOpenSim/trcMotMarkerGrf/sub09/qtm-15-02.trc
DataRate	CameraRate	NumFrames	NumMarkers	Units	OrigDataRate	OrigDataStartFrame	OrigNumFrames
250.000000	250.000000	9	24	m	250.000000	258	515
Frame#	Time	L.Toe.Tip			R.Toe.Tip			L.Ankle.Lat			R.Ankle.Lat			L.Ankle.Med			R.Ankle.Med			L.Heel			R.Heel			L.Knee.Lat			R.Knee.Lat			L.Knee.Med			R.Knee.Med			L.Thigh.Upper			R.Thigh.Upper			L.ASIS			R.ASIS			V.Sacral			L.Acromium			R.Acromium			C7			L.Elbow			R.Elbow			L.Wrist.Lat			R.Wrist.Lat
		X1	Y1	Z1	X2	Y2	Z2	X3	Y3	Z3	X4	Y4	Z4	X5	Y5	Z5	X6	Y6	Z6	X7	Y7	Z7	X8	Y8	Z8	X9	Y9	Z9	X10	Y10	Z10	X11	Y11	Z11	X12	Y12	Z12	X13	Y13	Z13	X14	Y14	Z14	X15	Y15	Z15	X16	Y16	Z16	X17	Y17	Z17	X18	Y18	Z18	X19	Y19	Z19	X20	Y20	Z20	X21	Y21	Z21	X22	Y22	Z22	X23	Y23	Z23	X24	Y24	Z24

258	1.028	0.15232957	-0.058675988	0.035834972	0.57331116	0.18106623	0.11340541	0.016371707	-0.00058200313	-0.028835646	0.42604071	0.18976726	0.12869583	0.032580451	0.014931933	0.069764561	0.44941957	0.22757734	0.036791928	-0.062161462	-0.022797145	0.01409887	0.36436071	0.16478939	0.069819115	0.14574887	0.39763763	-0.079593161	0.54335982	0.60804721	0.20624189	0.13612314	0.40149958	0.044271657	0.54920144	0.60512031	0.082214598	0.21126774	0.81323253	-0.1355252	0.21457371	0.84402842	0.24053628	0.31002909	0.89192472	-0.075965215	0.29000616	0.91959862	0.16465763	0.14265364	0.9696317	0.030371177	0.352657	1.3469308	-0.12010601	0.28814987	1.370169	0.20449417	0.2535316	1.4121073	0.028218949	0.20813146	1.0091178	-0.20693997	0.085792987	1.0730215	0.28247673	0.38094565	0.80515392	-0.22257969	0.15350433	0.81345139	0.32791563
259	1.032	0.15240842	-0.058673801	0.035748236	0.5935714	0.1814306	0.11288506	0.016656341	0.00018579055	-0.028919711	0.44604229	0.1860546	0.12743076	0.032939043	0.015651437	0.069650558	0.46873175	0.22438746	0.035547941	-0.061842417	-0.021624816	0.014084524	0.38564631	0.15918821	0.067966419	0.14685092	0.3982659	-0.079869721	0.54973146	0.60886652	0.20548413	0.13711039	0.40208172	0.043980487	0.55565636	0.60562682	0.081532593	0.21620104	0.8130804	-0.13535068	0.22056941	0.84413242	0.24088268	0.31530165	0.89143237	-0.076002448	0.29598185	0.91936052	0.16464754	0.14827394	0.96959284	0.030511517	0.35882495	1.3465285	-0.11997801	0.29460584	1.3698108	0.20468359	0.2598794	1.4118301	0.028396753	0.21406315	1.0086216	-0.20673096	0.092229916	1.0728203	0.28263018	0.38777892	0.80527165	-0.22187323	0.15877875	0.81299367	0.32788848
260	1.036	0.15248528	-0.05867704	0.035659759	0.61362368	0.18175514	0.11243203	0.016931407	0.00093351484	-0.028980582	0.46607437	0.1824542	0.12606054	0.033337464	0.016381686	0.069533801	0.4880599	0.22136497	0.034283259	-0.061518501	-0.02044276	0.01406674	0.40696574	0.15391117	0.065993153	0.14794986	0.39884997	-0.080184548	0.5559637	0.60942788	0.20474894	0.13811554	0.40263812	0.043674523	0.56212177	0.60587622	0.080792859	0.22127804	0.81290702	-0.13516547	0.22660403	0.84415795	0.24123183	0.32059797	0.89089431	-0.07607165	0.30200455	0.91905607	0.1646013	0.15407992	0.96948231	0.031074741	0.36500996	1.346073	-0.11984215	0.30106702	1.3693947	0.20487572	0.26624244	1.4114929	0.028597385	0.2199947	1.0080787	-0.20654189	0.098681169	1.0725596	0.28280786	0.3946018	0.80532952	-0.22114565	0.16412941	0.81251062	0.32789197
261	1.04	0.15256242	-0.058685073	0.035573789	0.63347845	0.18203111	0.11202046	0.017171866	0.0016818702	-0.02900649	0.4860516	0.17895405	0.12457631	0.033783254	0.017123432	0.069416323	0.50737834	0.21852305	0.033012467	-0.061192023	-0.019245401	0.014053156	0.42818029	0.14899252	0.063985284	0.14907899	0.39939138	-0.080511585	0.56207068	0.60973716	0.20403637	0.13918154	0.40318335	0.043336725	0.56853002	0.60585914	0.080058599	0.2262988	0.81271988	-0.13492547	0.23268988	0.84411788	0.24157776	0.32590877	0.89030886	-0.0761755	0.30807138	0.91867751	0.16452384	0.16015341	0.96932719	0.032189963	0.37120776	1.3455606	-0.11970601	0.30753726	1.3689181	0.20506766	0.27261671	1.4110937	0.028819811	0.22594383	1.0074916	-0.20637106	0.1051597	1.0722422	0.28299619	0.40140103	0.80532127	-0.22042228	0.1696203	0.8120107	0.32792302
262	1.044	0.15264272	-0.058694969	0.035496149	0.65316214	0.18223651	0.11158016	0.017348114	0.002478245	-0.028988795	0.50583711	0.17561778	0.12304094	0.034270573	0.01787474	0.069299652	0.52666293	0.21586734	0.031730353	-0.0608626	-0.018027342	0.014042796	0.44918714	0.14444806	0.062018382	0.15030186	0.39990926	-0.080809588	0.56805597	0.60978787	0.20334836	0.14034275	0.4037341	0.042957895	0.5748007	0.60558572	0.079388632	0.23111899	0.81251656	-0.13460242	0.23882704	0.8440305	0.24191366	0.33121856	0.88967533	-0.076314617	0.31418136	0.91822195	0.16442	0.16645433	0.96912962	0.033732961	0.37741979	1.3449954	-0.11957514	0.31402577	1.3683818	0.20525894	0.27900513	1.4106426	0.029049463	0.23192377	1.0068607	-0.20621833	0.11166816	1.0718747	0.28318867	0.40817311	0.80525072	-0.21970093	0.17526942	0.81148701	0.32797354
263	1.048	0.15272887	-0.058705525	0.035435974	0.67269791	0.18234446	0.1110247	0.017457931	0.0033594374	-0.028932044	0.52534906	0.17253734	0.12155015	0.034795618	0.018638364	0.069189681	0.54587705	0.21340245	0.030432559	-0.060522649	-0.016784079	0.014034582	0.46996415	0.14026804	0.06011696	0.15165339	0.40042609	-0.081063709	0.57391192	0.60956026	0.2026837	0.14162775	0.40430061	0.042533024	0.58095548	0.60510493	0.078723993	0.23571983	0.81228553	-0.13421809	0.24500633	0.84389789	0.24223722	0.33650905	0.88899347	-0.076484442	0.32033327	0.91769419	0.16429421	0.17277334	0.9688736	0.035266469	0.3836507	1.3443849	-0.11945037	0.32054304	1.36779	0.20544692	0.28541621	1.4101506	0.029271321	0.23793271	1.0061856	-0.20609035	0.1181845	1.0714682	0.28339693	0.4149186	0.80512475	-0.21896431	0.18102753	0.81092315	0.32803703
264	1.052	0.15282182	-0.058716444	0.035396784	0.69208665	0.1823599	0.11032141	0.017553185	0.0043065895	-0.028862488	0.54465816	0.16970106	0.12011156	0.035357595	0.019418584	0.069095006	0.5649636	0.21113326	0.029136254	-0.060159549	-0.015509031	0.014036501	0.49052266	0.13643126	0.058284647	0.15311454	0.4009474	-0.081300794	0.57963547	0.6090395	0.20204031	0.14306567	0.40488684	0.042051605	0.58710702	0.60448488	0.077905918	0.24015349	0.81201448	-0.13379826	0.25122114	0.84370876	0.24254927	0.34176752	0.88826822	-0.076676553	0.32652295	0.91710301	0.16415196	0.17890407	0.96855228	0.036403043	0.38989947	1.3437354	-0.11933172	0.32709106	1.367148	0.20562933	0.29185103	1.4096195	0.029481106	0.24395676	1.0054685	-0.2059959	0.12466266	1.071041	0.28365061	0.42164086	0.80494634	-0.21820446	0.18682091	0.81031177	0.32811304
265	1.056	0.15292002	-0.058725577	0.035368637	0.71131644	0.18232381	0.10948946	0.0177108	0.0052635442	-0.028813525	0.56391153	0.16699752	0.11864735	0.035952667	0.020217332	0.069021267	0.58385328	0.20906105	0.027877851	-0.05976437	-0.014194258	0.014067715	0.51085805	0.13292013	0.056540065	0.15463999	0.40145919	-0.081566241	0.5852441	0.6082287	0.20142372	0.14468339	0.40549728	0.041501549	0.59331981	0.60374789	0.076861706	0.24448108	0.81170135	-0.13334896	0.25746772	0.84345244	0.24284847	0.34699833	0.88751177	-0.076882985	0.33274668	0.91645666	0.16399793	0.18481409	0.96817309	0.037117181	0.39615679	1.3430498	-0.11922315	0.33366926	1.3664591	0.20580789	0.29829945	1.4090461	0.029693793	0.24998407	1.0047145	-0.20593502	0.131046	1.070622	0.2839902	0.42834859	0.80471427	-0.21743197	0.19261737	0.80966177	0.32820673
266	1.06	0.15302166	-0.05873087	0.035338198	0.73038433	0.18227465	0.10852357	0.017972089	0.0061953055	-0.028793363	0.58315493	0.16438285	0.11714291	0.036574652	0.021033232	0.068967883	0.60248901	0.20718045	0.02668463	-0.059339464	-0.012833825	0.014152743	0.53094658	0.12972216	0.05491519	0.15620391	0.40194744	-0.081886204	0.59076473	0.60713921	0.20084107	0.1464861	0.40613535	0.040893856	0.59951767	0.60283325	0.075731005	0.24877279	0.81135777	-0.1328723	0.2637423	0.84312173	0.24313152	0.35222008	0.88673834	-0.077099502	0.33900418	0.91576113	0.16383081	0.19059996	0.9677414	0.03761356	0.40241609	1.3423282	-0.11912711	0.34028315	1.365723	0.20598514	0.30475043	1.4084354	0.029940164	0.2560163	1.0039291	-0.20589628	0.1373011	1.0702447	0.28444204	0.43505118	0.80442691	-0.21666102	0.19843676	0.80898719	0.32831894
